PathFileType	4	(X/Y/Z)	C:/Users/opensim2020/Desktop/walking_exp_matlab/subject01_walking05_straight_01.trc	
DataRate	CameraRate	NumFrames	NumMarkers	Units	OrigDataRate	OrigDataStartFrame	OrigNumFrames	
100.00	100.00	7	43	mm	100.00	755	239	
Frame#	Time	LFHD			RFHD			LBHD			RBHD			C7			T10			CLAV			STRN			RBAK			LSHO			LUPA			LELB			LFRM			LWRA			LWRB			LFIN			RSHO			RUPA			RELB			RFRM			RWRA			RWRB			RFIN			LASI			RASI			LPSI			RPSI			LTHI			LKNE			LTIB			LANK			LHEE			LTOE			RTHI			RKNE			RTIB			RANK			RHEE			RTOE			*39			*40			*41			*42			
		X1	Y1	Z1	X2	Y2	Z2	X3	Y3	Z3	X4	Y4	Z4	X5	Y5	Z5	X6	Y6	Z6	X7	Y7	Z7	X8	Y8	Z8	X9	Y9	Z9	X10	Y10	Z10	X11	Y11	Z11	X12	Y12	Z12	X13	Y13	Z13	X14	Y14	Z14	X15	Y15	Z15	X16	Y16	Z16	X17	Y17	Z17	X18	Y18	Z18	X19	Y19	Z19	X20	Y20	Z20	X21	Y21	Z21	X22	Y22	Z22	X23	Y23	Z23	X24	Y24	Z24	X25	Y25	Z25	X26	Y26	Z26	X27	Y27	Z27	X28	Y28	Z28	X29	Y29	Z29	X30	Y30	Z30	X31	Y31	Z31	X32	Y32	Z32	X33	Y33	Z33	X34	Y34	Z34	X35	Y35	Z35	X36	Y36	Z36	X37	Y37	Z37	X38	Y38	Z38	X39	Y39	Z39	X40	Y40	Z40	X41	Y41	Z41	X42	Y42	Z42	X43	Y43	Z43	

1	0.000	-1071.38940	-1035.89343	1672.03674	-959.67535	-1015.33826	1685.55457	-1052.93494	-1140.67664	1604.51843	-933.92047	-1121.67749	1616.76123	-999.09326	-1155.64001	1434.74438	-986.61609	-1199.43701	1143.82703	-1006.82562	-1011.11261	1363.66211	-1012.58630	-975.26782	1206.35999	-913.60333	-1209.42639	1244.63403	-1162.93945	-1085.24768	1392.65833	-1243.71570	-1134.40686	1212.45117	-1243.41772	-1162.27075	1063.29175	-1270.92480	-1130.56177	953.56366	-1265.47424	-1053.29382	837.91418	-1277.52551	-1111.69385	831.62048	-1293.24866	-1065.87781	761.59503	-851.63159	-1063.12219	1394.40027	-742.42163	-1104.60535	1194.72180	-737.48615	-1094.10608	1068.09888	-717.73438	-1041.20056	956.21271	-754.36035	-942.60236	859.36053	-710.94177	-981.27136	849.99316	-719.35480	-928.07184	783.38458	-1104.43457	-1045.98682	932.01648	-887.10248	-1039.34570	924.67249	-1051.09790	-1228.77344	953.54346	-906.32593	-1225.22327	956.70178	-1175.11829	-1003.22766	618.40967	-1163.83557	-987.70795	485.68585	-1172.41357	-1087.79187	325.67682	-1127.79578	-1173.75183	123.48109	-1067.38391	-1215.11768	100.77920	-1161.02930	-1054.45935	47.89939	-849.35260	-1137.70032	597.45349	-881.98096	-1146.53296	440.73486	-884.44678	-1207.50256	275.39514	-945.16144	-1232.35229	72.15121	-999.35071	-1279.19141	36.79278	-940.28339	-1091.89880	29.32658	-981.48633	-1036.19897	1715.56433	-3101.93750	1973.19507	1023.41736	-3140.67041	2012.57312	1022.00842			 
2	0.010	-1071.66980	-1028.58167	1671.70313	-960.06555	-1007.83020	1685.28210	-1053.12537	-1133.34045	1604.02295	-934.19159	-1114.36670	1616.52991	-999.28656	-1148.19922	1434.63831	-986.75592	-1191.95630	1143.60449	-1006.46869	-1003.65631	1363.38733	-1011.91699	-967.71790	1206.12988	-914.01111	-1202.34204	1244.39539	-1163.00415	-1077.32300	1392.22998	-1243.56262	-1127.36401	1211.89063	-1242.42554	-1154.82092	1062.77612	-1269.82727	-1124.83240	953.03784	-1263.76489	-1049.07117	836.27502	-1276.18689	-1107.46912	830.87250	-1291.92664	-1062.66602	760.33362	-851.38000	-1056.38806	1394.32092	-742.22614	-1097.85852	1194.59131	-736.99774	-1086.68762	1067.87341	-717.30511	-1032.53064	956.63049	-753.58636	-932.37653	861.25049	-710.55505	-970.92908	851.13281	-719.15369	-917.41119	785.37573	-1104.09265	-1037.97131	932.22180	-886.70618	-1032.67346	924.11639	-1051.79895	-1221.14954	953.56879	-907.05237	-1218.49890	956.89557	-1175.29822	-992.70013	619.42554	-1162.99939	-976.18231	486.56921	-1172.64380	-1069.56116	322.17267	-1127.92896	-1146.51855	116.19305	-1067.93591	-1187.61536	91.77992	-1160.22815	-1023.45172	46.96313	-849.79523	-1133.67688	597.38092	-882.25311	-1144.58521	440.89182	-884.84399	-1206.33752	276.05548	-945.53961	-1231.62695	72.22403	-999.83643	-1278.83875	37.73503	-940.17035	-1091.81201	29.30472	-981.98468	-1029.02405	1715.41748	-3101.98901	1973.16309	1023.47601	-3140.66968	2012.53357	1022.02820			 
3	0.020	-1072.11255	-1021.41840	1671.40845	-960.32111	-1001.00934	1685.55554	-1053.42834	-1125.80713	1603.46008	-934.50598	-1107.25732	1616.02002	-999.61548	-1140.60815	1434.39172	-986.95770	-1184.42175	1143.36938	-1006.34308	-996.11188	1363.07361	-1011.26154	-960.12555	1205.86255	-914.50964	-1195.10669	1244.10767	-1163.17786	-1069.07336	1391.72766	-1243.30115	-1120.20740	1211.27649	-1241.78809	-1147.96936	1062.42627	-1268.73401	-1118.92236	952.30902	-1262.21252	-1044.59375	834.69452	-1275.06873	-1102.96094	830.13239	-1290.73694	-1059.07629	759.16309	-851.56213	-1049.08533	1394.11255	-742.06647	-1091.11096	1194.54578	-736.39386	-1079.51392	1067.81702	-716.96790	-1024.11047	957.24164	-753.26685	-922.58636	863.06110	-710.42828	-961.01642	852.33142	-718.95020	-906.38031	787.37366	-1103.73877	-1030.07654	932.28925	-886.39496	-1026.09265	923.58795	-1052.49573	-1213.50024	953.55042	-907.82092	-1211.67712	956.93005	-1175.45154	-982.80371	620.14240	-1162.36328	-965.14111	487.26514	-1172.73901	-1051.28638	318.64520	-1128.35071	-1118.59216	109.15475	-1068.42346	-1158.95447	82.88410	-1158.72424	-992.12042	46.36946	-850.13129	-1129.56702	597.41028	-882.54187	-1142.02637	441.06580	-885.24939	-1205.14233	276.79385	-945.66162	-1232.33533	73.53216	-1000.54498	-1277.73425	38.07381	-940.12469	-1091.87695	29.32561	-982.42676	-1022.01813	1715.14966	-3101.89722	1973.08203	1023.73334	-3140.63110	2012.52930	1022.01959			 
4	0.030	-1072.44592	-1014.16095	1671.06750	-960.86639	-994.13434	1685.35327	-1053.82837	-1118.36560	1602.79480	-934.93964	-1099.96680	1615.60339	-1000.07959	-1132.86572	1434.01111	-987.34668	-1176.79590	1143.08423	-1005.77545	-988.63397	1362.66125	-1010.72961	-952.48254	1205.52844	-915.02649	-1187.79041	1243.89063	-1163.22351	-1061.02527	1391.12683	-1242.98328	-1112.96753	1210.59790	-1241.19202	-1141.05859	1061.95520	-1268.04297	-1112.89429	951.73962	-1260.82263	-1039.92419	833.19012	-1274.11035	-1098.27466	829.45477	-1289.64893	-1055.15894	758.05054	-851.51392	-1042.11365	1393.94385	-742.07178	-1084.18408	1194.40417	-736.01703	-1072.33472	1067.69751	-716.67041	-1015.54498	957.54614	-753.11560	-912.93494	864.92468	-710.27838	-951.22925	853.59460	-718.93903	-895.79852	789.55981	-1103.47412	-1022.09290	932.11633	-886.28632	-1019.41736	922.83307	-1053.28259	-1205.82324	953.47369	-908.70227	-1204.76929	957.04559	-1175.63965	-973.44855	620.58093	-1161.83484	-954.69733	487.66898	-1173.01196	-1033.18225	315.31027	-1128.74390	-1090.25122	102.32971	-1069.34302	-1130.29468	74.58353	-1156.76563	-960.06989	45.84070	-850.55402	-1125.03040	597.30273	-882.80084	-1139.36792	441.24298	-885.56543	-1203.85132	277.49341	-946.00043	-1231.95557	74.19416	-1000.98901	-1277.75476	39.18205	-939.98492	-1091.72705	29.19407	-982.79181	-1015.17340	1714.84717	-3102.06006	1972.95239	1023.95020	-3140.75757	2012.49768	1021.99188			 
5	0.040	-1072.96252	-1006.99677	1670.78296	-961.31757	-987.02759	1685.22742	-1054.28418	-1110.92029	1602.09424	-935.35455	-1092.56592	1615.29663	-1000.59015	-1125.14319	1433.74988	-987.85028	-1169.21082	1142.79224	-1006.22461	-980.87305	1362.28967	-1010.37878	-944.67242	1205.15601	-915.59747	-1180.37170	1243.67896	-1163.54016	-1052.75720	1390.43201	-1243.05286	-1105.69653	1209.91162	-1240.84192	-1134.24561	1061.43848	-1267.24902	-1106.83752	950.81305	-1259.57080	-1035.07642	831.72656	-1273.29041	-1093.48584	828.56104	-1288.70337	-1050.99548	756.73389	-851.72357	-1034.85767	1393.88464	-742.21436	-1077.34656	1194.30811	-735.71008	-1065.18945	1067.67627	-716.52606	-1007.16638	957.94940	-752.96021	-903.43829	866.72638	-710.32001	-941.96509	854.85229	-718.77393	-885.36621	791.40527	-1103.13110	-1014.27972	931.88800	-886.15594	-1012.61487	922.29541	-1054.07410	-1198.08362	953.39856	-909.56079	-1198.07825	957.27209	-1176.10059	-964.35260	620.94910	-1161.31750	-944.82886	487.90646	-1173.43457	-1015.29993	312.25241	-1129.54553	-1061.56177	96.32365	-1070.62451	-1101.33740	66.97830	-1154.15479	-927.67719	45.86382	-850.79114	-1120.64917	597.39868	-883.04352	-1136.54822	441.47653	-885.77576	-1202.72632	278.27856	-946.19910	-1231.76367	74.88108	-1001.45697	-1277.18677	40.00964	-939.97906	-1091.92065	29.19862	-983.43341	-1008.21924	1714.58508	-3101.84351	1973.18677	1023.35028	-3140.56763	2012.56152	1022.03326			 
6	0.050	-1073.44250	-999.66626	1670.28638	-961.80847	-980.00592	1685.05237	-1054.84558	-1103.43469	1601.31042	-935.95947	-1085.35840	1614.58276	-1001.23920	-1117.32324	1433.47070	-988.49847	-1161.60059	1142.50208	-1006.09784	-973.11743	1361.82727	-1010.06909	-936.90729	1204.72266	-916.20630	-1172.88611	1243.50610	-1164.04028	-1044.35999	1389.77722	-1243.30676	-1098.21008	1209.18909	-1240.56311	-1127.19604	1060.90857	-1266.72278	-1100.69153	950.19080	-1258.42834	-1030.04053	830.28516	-1272.44360	-1088.38391	827.69159	-1287.63354	-1046.63159	755.56866	-851.89783	-1027.72620	1393.55505	-742.40771	-1070.40747	1194.26221	-735.57794	-1058.01648	1067.59436	-716.45184	-998.90497	958.36304	-753.27686	-894.38708	868.39966	-710.37610	-932.18719	855.92560	-718.72223	-875.12048	793.45813	-1103.24182	-1005.92767	931.65649	-886.23315	-1005.57080	921.79688	-1054.94446	-1190.27673	953.26031	-910.46838	-1190.66614	957.08032	-1176.44946	-956.04639	620.76233	-1160.81750	-935.53149	487.81409	-1173.91577	-997.68585	309.47961	-1130.26514	-1032.75293	90.76923	-1071.98169	-1072.30945	60.08855	-1151.75867	-896.09009	46.38828	-851.13190	-1115.98511	597.48621	-883.20551	-1133.12036	441.67889	-886.29211	-1200.58643	278.91095	-946.70862	-1230.46863	75.12237	-1001.84235	-1277.23987	41.79409	-939.99670	-1091.88159	29.28447	-983.97791	-1001.18073	1714.36011	-3101.85791	1973.09546	1023.26605	-3140.61523	2012.53552	1022.04065			 
7	0.060	-1073.89099	-992.35242	1669.80383	-962.48486	-972.37775	1684.57874	-1055.49475	-1095.88599	1600.42896	-936.62665	-1078.04346	1613.91077	-1002.06049	-1108.95776	1432.76721	-989.33246	-1153.96472	1142.18896	-1006.74304	-965.17310	1361.36902	-1009.85614	-929.15033	1204.16638	-916.86023	-1165.36768	1243.36926	-1164.56494	-1035.94275	1389.02161	-1243.28711	-1090.27148	1208.36353	-1240.51807	-1120.13660	1060.33887	-1266.30823	-1094.33411	949.25757	-1257.52612	-1024.83850	828.89423	-1271.83923	-1083.09143	826.80170	-1286.73035	-1041.99915	754.30090	-852.40063	-1020.03571	1393.33252	-742.67798	-1063.29236	1194.29810	-735.51105	-1050.99023	1067.58154	-716.48438	-990.80499	958.84460	-752.91644	-884.97571	870.21686	-710.52625	-922.97803	857.18188	-718.76013	-865.09009	795.43304	-1103.22437	-997.71021	931.34857	-886.35785	-998.47601	921.44989	-1055.91321	-1182.34705	952.99011	-911.44513	-1183.50647	956.97888	-1176.79993	-948.25665	620.15796	-1160.34180	-926.72522	487.58954	-1174.32349	-980.42896	307.06998	-1131.15942	-1004.09869	85.98029	-1073.54333	-1043.30334	54.14241	-1149.39172	-865.17706	47.83080	-851.38318	-1111.07300	597.39465	-883.45825	-1129.70728	441.79218	-886.72809	-1198.32825	279.71640	-946.88953	-1230.32983	76.43199	-1002.29333	-1276.73340	42.91103	-939.93982	-1091.61206	29.15445	-984.66431	-994.29510	1713.85315	-3101.91626	1973.10095	1023.29736	-3140.68213	2012.56018	1022.13263			 
